<svg width="109" height="40" viewBox="0 0 109 40" fill="none" xmlns="http://www.w3.org/2000/svg">
<g clip-path="url(#clip0_711_32240)">
<path d="M60.0166 13.6775C64.938 13.6775 69.8593 13.6775 74.8772 13.6775C74.6232 15.6073 74.3758 17.4867 74.1225 19.4117C71.1397 19.4117 68.2033 19.4116 65.2669 19.4117C65.0709 19.4117 64.8619 19.3699 64.6828 19.425C64.527 19.4729 64.3006 19.6172 64.2846 19.7419C64.1514 20.7832 64.0596 21.8297 63.9494 22.9336C66.4851 22.9336 68.9507 22.9336 71.46 22.9336C71.2181 24.8252 70.9837 26.6586 70.7446 28.5293C68.4062 28.5293 66.1306 28.5471 63.8556 28.5169C63.2821 28.5092 63.1278 28.7264 63.0763 29.2566C62.9264 30.8033 62.7208 32.3447 62.5272 33.9705C62.7473 33.9705 62.9819 33.9705 63.2166 33.9705C66.0342 33.9705 68.8519 33.9643 71.6694 33.9815C71.9125 33.983 72.1505 34.1571 72.3991 34.2163C72.5231 34.2458 72.6985 34.2436 72.7953 34.1761C74.0017 33.3361 75.1979 32.4814 76.2785 31.7143C77.0797 32.3898 77.7933 33.1091 78.6189 33.6609C79.9654 34.5609 81.3597 34.7394 82.9115 33.6804C84.6233 32.5123 84.3842 30.4933 82.7139 29.572C81.9647 29.1587 81.107 28.9116 80.2715 28.6919C78.6697 28.2707 77.2754 27.52 76.1161 26.3367C75.1178 25.3179 74.5707 24.1162 74.3941 22.6803C74.066 20.013 74.9755 17.7697 76.8026 15.9654C79.0431 13.7527 81.8074 12.907 84.8909 13.8455C87.2288 14.5571 88.7362 16.2015 89.4422 18.5591C87.7918 19.3611 86.1823 20.1431 84.5251 20.9484C83.9222 19.6641 82.9319 19.1027 81.5684 19.2686C80.3693 19.4146 79.1814 20.2599 79.5747 21.5664C79.8375 22.439 80.6231 22.7764 81.4143 23.0977C82.9605 23.7257 84.5473 24.2934 86.0034 25.0934C87.7454 26.0504 88.8156 27.5619 89.1332 29.6124C89.8409 34.1802 86.8369 38.5028 82.4703 39.803C82.2054 39.8819 81.9414 39.9642 81.7209 40.096C80.7323 40.1469 79.6998 40.1469 78.5984 40.1469C78.4829 40.0507 78.4494 39.8799 78.3876 39.869C76.4976 39.5354 74.9862 38.4857 73.5664 37.2896C73.1513 36.9399 72.8443 36.4591 72.5036 36.0258C72.4082 35.9045 72.3697 35.7385 72.3051 35.593C72.2346 35.647 72.1641 35.7011 72.0936 35.7551C71.9263 37.0001 71.759 38.2451 71.5872 39.5243C66.6285 39.5243 61.6678 39.5243 56.6914 39.5243C56.8629 38.0876 57.0232 36.6485 57.2093 35.2127C57.3809 33.8877 57.5876 32.5673 57.7647 31.243C57.8852 30.3414 57.9741 29.4356 58.0899 28.5333C58.2784 27.0644 58.4868 25.598 58.669 24.1284C58.8311 22.8211 58.9564 21.5092 59.1212 20.2023C59.2944 18.8287 59.5063 17.46 59.6771 16.0862C59.728 15.677 59.6975 15.2578 59.7045 14.722C59.8086 14.293 59.9126 13.9852 60.0166 13.6775Z" fill="white"/>
<path d="M60.0118 13.6234C59.9126 13.9853 59.8086 14.293 59.6939 14.6557C59.2654 15.4595 58.8014 16.1866 58.4393 16.9614C57.5716 18.8183 56.753 20.6981 55.9126 22.5678C54.1227 26.5497 52.3335 30.532 50.54 34.5123C49.8363 36.0741 49.1291 37.6345 48.4009 39.185C48.3251 39.3462 48.096 39.5397 47.9361 39.5414C45.8087 39.5651 43.681 39.5573 41.5611 39.5573C40.548 34.5774 39.5315 29.6586 38.5506 24.7329C37.8787 21.3589 37.2574 17.975 36.6062 14.5969C36.5853 14.4885 36.4847 14.3956 36.3719 14.2147C36.3211 13.9886 36.3196 13.8433 36.3181 13.6979C37.9832 13.6908 39.6483 13.6888 41.3133 13.6727C41.6934 13.6691 41.8448 13.7876 41.9267 14.1995C42.7284 18.23 43.5719 22.2522 44.3871 26.2801C44.8016 28.3283 45.1826 30.3833 45.5787 32.4353C45.6555 32.4587 45.7323 32.4821 45.8091 32.5056C49.4729 24.4766 53.1368 16.4477 56.8217 8.37241C55.991 7.99641 55.2117 7.64367 54.2962 7.22929C55.0355 6.60904 55.6969 6.02755 56.386 5.48086C58.4089 3.87608 60.4442 2.28705 62.469 0.684822C62.6187 0.566399 62.724 0.391921 62.8221 0.195237C62.9045 0.146973 63.0148 0.146973 63.1802 0.146973C63.3337 2.52246 63.4229 4.89838 63.534 7.27327C63.5981 8.64467 63.6977 10.0144 63.7872 11.4817C63.3217 11.289 62.8868 11.129 62.4693 10.9323C61.3023 10.3826 61.4857 10.3961 60.961 11.4704C60.6238 12.1607 60.3236 12.869 60.0118 13.6234Z" fill="#038F61"/>
<path d="M108.824 15.6668C108.726 15.8066 108.553 15.8685 108.543 15.9509C108.426 16.8804 108.293 17.8112 108.252 18.7454C108.229 19.2525 108.09 19.4277 107.572 19.4214C105.566 19.3972 103.56 19.4116 101.526 19.4116C100.673 26.1273 99.8233 32.8131 98.9708 39.5201C97.2408 39.5201 95.5393 39.5201 93.8445 39.5201C94.6941 32.8189 95.539 26.1548 96.3928 19.4207C94.1594 19.4207 92.0393 19.4207 89.7942 19.4207C90.0282 17.4828 90.2537 15.6144 90.4877 13.6763C96.548 13.6763 102.617 13.6763 108.755 13.6763C108.824 14.317 108.824 14.9577 108.824 15.6668Z" fill="white"/>
<path d="M0.146973 37.8617C0.243256 37.7476 0.416999 37.7112 0.424434 37.6533C0.588154 36.38 0.725106 35.1032 0.884509 33.8292C1.05947 32.431 1.25492 31.0353 1.43578 29.6378C1.5984 28.3811 1.75596 27.1238 1.91101 25.8662C2.10883 24.2617 2.30188 22.6566 2.49593 21.0605C4.26212 21.0605 5.94361 21.0605 7.63019 21.0605C6.84447 27.2268 6.06277 33.3615 5.2731 39.5587C3.60186 39.5587 1.94334 39.5587 0.215893 39.5587C0.146973 39.0156 0.146973 38.4726 0.146973 37.8617Z" fill="white"/>
<path d="M36.2497 13.688C36.3195 13.8433 36.321 13.9887 36.3204 14.1884C36.173 15.0508 36.006 15.8555 35.8871 16.6673C35.6758 18.11 35.4807 19.5555 35.3032 21.0028C35.1367 22.3601 35.0182 23.7234 34.8482 25.0803C34.6819 26.4073 34.4668 27.7281 34.2931 29.0542C34.1685 30.0054 34.0881 30.9624 33.9679 31.9142C33.7911 33.3137 33.5889 34.7099 33.4118 36.1094C33.2913 37.0609 33.1644 38.0134 33.1018 38.9695C33.0729 39.4111 32.9411 39.5715 32.4951 39.566C30.9762 39.5472 29.4561 39.5832 27.9386 39.5344C27.6909 39.5265 27.3301 39.2472 27.23 39.0067C25.8735 35.7453 24.5584 32.4666 23.2228 29.1964C22.6528 27.8007 22.062 26.4133 21.4706 25.0264C21.412 24.8891 21.2829 24.7818 21.0642 24.5067C20.7398 27.2371 20.4511 29.7338 20.1444 32.2283C19.8611 34.532 19.5665 36.8344 19.2469 39.1332C19.2248 39.2927 18.9563 39.537 18.7983 39.5401C17.2602 39.5709 15.7212 39.5586 14.0759 39.5586C14.2047 38.3635 14.3118 37.2248 14.4537 36.0904C14.6199 34.7629 14.8192 33.4395 14.9992 32.1136C15.1922 30.6921 15.3864 29.2707 15.5672 27.8476C15.7303 26.5641 15.8665 25.2772 16.0316 23.994C16.2665 22.168 16.5292 20.3456 16.7567 18.5187C16.9256 17.1618 17.0762 15.802 17.196 14.44C17.2399 13.941 17.3212 13.6448 17.9375 13.6629C19.3819 13.7053 20.8291 13.6532 22.2733 13.6979C22.5329 13.706 22.9246 13.9358 23.0178 14.1614C24.7442 18.3401 26.4317 22.5349 28.1355 26.723C28.4188 27.4194 28.7402 28.1004 29.2287 28.8144C29.8704 23.7876 30.5121 18.7608 31.161 13.678C32.858 13.678 34.5197 13.678 36.2497 13.688Z" fill="white"/>
<path d="M13.5293 29.1301C13.3417 30.6198 13.1501 32.0416 12.9677 33.4646C12.8064 34.7233 12.6549 35.9831 12.5001 37.2426C12.4072 37.9988 12.3164 38.7553 12.2222 39.5317C10.4841 39.5317 8.80043 39.5317 7.10425 39.5317C8.19125 30.9321 9.2762 22.3487 10.3671 13.7183C11.9961 13.7183 13.6747 13.7183 15.5081 13.7183C14.8478 18.8384 14.1886 23.9506 13.5293 29.1301Z" fill="white"/>
<path d="M6.48991 19.0275C4.75974 19.7517 2.88284 18.8778 3.07658 16.6138C3.2775 14.2658 5.50471 13.0339 7.17821 13.9614C7.70416 14.2529 8.01706 14.6745 7.99262 15.273C7.95915 16.0923 8.01198 16.9558 7.75994 17.711C7.59141 18.2159 6.95718 18.5654 6.48991 19.0275Z" fill="white"/>
<path d="M5.66853 10.1558C5.10053 10.1558 4.56653 10.0438 4.06653 9.81985C3.56653 9.59185 3.12653 9.27785 2.74653 8.87785C2.37053 8.47785 2.07453 8.01585 1.85853 7.49185C1.64653 6.96385 1.54053 6.39985 1.54053 5.79985C1.54053 5.19585 1.64653 4.63185 1.85853 4.10785C2.07453 3.57985 2.37053 3.11785 2.74653 2.72185C3.12653 2.32185 3.56653 2.00985 4.06653 1.78585C4.56653 1.55785 5.10053 1.44385 5.66853 1.44385C6.34853 1.44385 6.97453 1.60185 7.54653 1.91785C8.11853 2.22985 8.59253 2.64785 8.96853 3.17185L7.66053 3.87385C7.42453 3.58185 7.13053 3.34785 6.77853 3.17185C6.43053 2.99585 6.06053 2.90785 5.66853 2.90785C5.30053 2.90785 4.95453 2.98385 4.63053 3.13585C4.30653 3.28385 4.02253 3.49185 3.77853 3.75985C3.53453 4.02385 3.34453 4.33185 3.20853 4.68385C3.07253 5.03185 3.00453 5.40385 3.00453 5.79985C3.00453 6.19985 3.07253 6.57385 3.20853 6.92185C3.34853 7.26985 3.54053 7.57785 3.78453 7.84585C4.02853 8.10985 4.31053 8.31785 4.63053 8.46985C4.95453 8.61785 5.30053 8.69185 5.66853 8.69185C6.06853 8.69185 6.44053 8.60385 6.78453 8.42785C7.13253 8.24785 7.42453 8.01185 7.66053 7.71985L8.96853 8.42785C8.59253 8.94785 8.11853 9.36585 7.54653 9.68185C6.97453 9.99785 6.34853 10.1558 5.66853 10.1558Z" fill="white"/>
<path d="M12.4244 10.1558C11.8724 10.1558 11.3684 10.0138 10.9124 9.72985C10.4604 9.44585 10.0984 9.06585 9.82643 8.58985C9.55843 8.10985 9.42443 7.57985 9.42443 6.99985C9.42443 6.55985 9.50243 6.14985 9.65843 5.76985C9.81443 5.38585 10.0284 5.04985 10.3004 4.76185C10.5764 4.46985 10.8964 4.24185 11.2604 4.07785C11.6244 3.91385 12.0124 3.83185 12.4244 3.83185C12.9764 3.83185 13.4784 3.97385 13.9304 4.25785C14.3864 4.54185 14.7484 4.92385 15.0164 5.40385C15.2884 5.88385 15.4244 6.41585 15.4244 6.99985C15.4244 7.43585 15.3464 7.84385 15.1904 8.22385C15.0344 8.60385 14.8184 8.93985 14.5424 9.23185C14.2704 9.51985 13.9524 9.74585 13.5884 9.90985C13.2284 10.0738 12.8404 10.1558 12.4244 10.1558ZM12.4244 8.69185C12.7164 8.69185 12.9784 8.61385 13.2104 8.45785C13.4424 8.30185 13.6244 8.09585 13.7564 7.83985C13.8924 7.58385 13.9604 7.30385 13.9604 6.99985C13.9604 6.68785 13.8904 6.40385 13.7504 6.14785C13.6144 5.88785 13.4284 5.68185 13.1924 5.52985C12.9604 5.37385 12.7044 5.29585 12.4244 5.29585C12.1364 5.29585 11.8764 5.37385 11.6444 5.52985C11.4124 5.68585 11.2284 5.89385 11.0924 6.15385C10.9564 6.41385 10.8884 6.69585 10.8884 6.99985C10.8884 7.31585 10.9584 7.60185 11.0984 7.85785C11.2384 8.11385 11.4244 8.31785 11.6564 8.46985C11.8924 8.61785 12.1484 8.69185 12.4244 8.69185Z" fill="white"/>
<path d="M20.8341 3.99985H22.2981V10.1138C22.2981 10.5458 22.2101 10.9378 22.0341 11.2898C21.8581 11.6458 21.6181 11.9498 21.3141 12.2018C21.0101 12.4578 20.6621 12.6538 20.2701 12.7898C19.8781 12.9298 19.4661 12.9998 19.0341 12.9998C18.6141 12.9998 18.2101 12.9138 17.8221 12.7418C17.4341 12.5698 17.0901 12.3338 16.7901 12.0338C16.4941 11.7378 16.2681 11.3998 16.1121 11.0198L17.4501 10.4138C17.5301 10.6338 17.6501 10.8258 17.8101 10.9898C17.9741 11.1578 18.1621 11.2878 18.3741 11.3798C18.5861 11.4758 18.8061 11.5238 19.0341 11.5238C19.2661 11.5238 19.4881 11.4918 19.7001 11.4278C19.9161 11.3638 20.1101 11.2698 20.2821 11.1458C20.4541 11.0258 20.5881 10.8778 20.6841 10.7018C20.7841 10.5298 20.8341 10.3338 20.8341 10.1138V9.26785C20.6461 9.53185 20.4101 9.74585 20.1261 9.90985C19.8421 10.0738 19.5141 10.1558 19.1421 10.1558C18.7101 10.1558 18.3061 10.0738 17.9301 9.90985C17.5541 9.74585 17.2221 9.51985 16.9341 9.23185C16.6501 8.93985 16.4261 8.60385 16.2621 8.22385C16.1021 7.84385 16.0221 7.43585 16.0221 6.99985C16.0221 6.56385 16.1021 6.15585 16.2621 5.77585C16.4261 5.39585 16.6501 5.06185 16.9341 4.77385C17.2221 4.48185 17.5541 4.25385 17.9301 4.08985C18.3061 3.92585 18.7101 3.84385 19.1421 3.84385C19.5141 3.84385 19.8421 3.92585 20.1261 4.08985C20.4101 4.24985 20.6461 4.46185 20.8341 4.72585V3.99985ZM19.1601 8.74585C19.4681 8.74585 19.7401 8.66785 19.9761 8.51185C20.2161 8.35185 20.4041 8.13985 20.5401 7.87585C20.6761 7.60785 20.7441 7.31585 20.7441 6.99985C20.7441 6.67985 20.6741 6.38785 20.5341 6.12385C20.3981 5.85985 20.2101 5.64785 19.9701 5.48785C19.7341 5.32785 19.4641 5.24785 19.1601 5.24785C18.8601 5.24785 18.5861 5.32785 18.3381 5.48785C18.0901 5.64385 17.8921 5.85385 17.7441 6.11785C17.5961 6.38185 17.5221 6.67585 17.5221 6.99985C17.5221 7.32385 17.5961 7.61785 17.7441 7.88185C17.8921 8.14585 18.0901 8.35585 18.3381 8.51185C18.5861 8.66785 18.8601 8.74585 19.1601 8.74585Z" fill="white"/>
<path d="M26.2408 10.1558C25.6888 10.1558 25.1848 10.0138 24.7288 9.72985C24.2768 9.44585 23.9148 9.06385 23.6428 8.58385C23.3748 8.10385 23.2408 7.57385 23.2408 6.99385C23.2408 6.55785 23.3188 6.14985 23.4748 5.76985C23.6308 5.38585 23.8448 5.04985 24.1168 4.76185C24.3928 4.46985 24.7128 4.24185 25.0768 4.07785C25.4408 3.91385 25.8288 3.83185 26.2408 3.83185C26.7088 3.83185 27.1368 3.93185 27.5248 4.13185C27.9168 4.32785 28.2488 4.59785 28.5208 4.94185C28.7928 5.28585 28.9908 5.67785 29.1148 6.11785C29.2388 6.55785 29.2668 7.01785 29.1988 7.49785H24.8128C24.8688 7.72185 24.9608 7.92385 25.0888 8.10385C25.2168 8.27985 25.3788 8.42185 25.5748 8.52985C25.7708 8.63385 25.9928 8.68785 26.2408 8.69185C26.4968 8.69585 26.7288 8.63585 26.9368 8.51185C27.1488 8.38385 27.3248 8.21185 27.4648 7.99585L28.9588 8.34385C28.7148 8.87585 28.3508 9.31185 27.8668 9.65185C27.3828 9.98785 26.8408 10.1558 26.2408 10.1558ZM24.7648 6.39985H27.7168C27.6728 6.15985 27.5788 5.94385 27.4348 5.75185C27.2948 5.55585 27.1208 5.39985 26.9128 5.28385C26.7048 5.16785 26.4808 5.10985 26.2408 5.10985C26.0008 5.10985 25.7788 5.16785 25.5748 5.28385C25.3708 5.39585 25.1968 5.54985 25.0528 5.74585C24.9128 5.93785 24.8168 6.15585 24.7648 6.39985Z" fill="white"/>
<path d="M35.6711 6.20785V9.99985H34.2071V6.59185C34.2071 6.35585 34.1491 6.14185 34.0331 5.94985C33.9171 5.75385 33.7611 5.59985 33.5651 5.48785C33.3731 5.37185 33.1591 5.31385 32.9231 5.31385C32.6871 5.31385 32.4711 5.37185 32.2751 5.48785C32.0831 5.59985 31.9291 5.75385 31.8131 5.94985C31.7011 6.14185 31.6451 6.35585 31.6451 6.59185V9.99985H30.1811L30.1751 3.99985H31.6391L31.6451 4.53385C31.8491 4.31785 32.0931 4.14785 32.3771 4.02385C32.6611 3.89585 32.9671 3.83185 33.2951 3.83185C33.7311 3.83185 34.1291 3.93985 34.4891 4.15585C34.8491 4.36785 35.1351 4.65385 35.3471 5.01385C35.5631 5.36985 35.6711 5.76785 35.6711 6.20785Z" fill="white"/>
<path d="M40.4693 8.19385L41.7893 8.90785C41.5133 9.28385 41.1673 9.58585 40.7513 9.81385C40.3353 10.0418 39.8813 10.1558 39.3893 10.1558C38.8373 10.1558 38.3333 10.0138 37.8773 9.72985C37.4253 9.44585 37.0633 9.06585 36.7913 8.58985C36.5233 8.10985 36.3893 7.57985 36.3893 6.99985C36.3893 6.55985 36.4673 6.14985 36.6233 5.76985C36.7793 5.38585 36.9933 5.04985 37.2653 4.76185C37.5413 4.46985 37.8613 4.24185 38.2253 4.07785C38.5893 3.91385 38.9773 3.83185 39.3893 3.83185C39.8813 3.83185 40.3353 3.94585 40.7513 4.17385C41.1673 4.40185 41.5133 4.70785 41.7893 5.09185L40.4693 5.79985C40.3293 5.63985 40.1633 5.51585 39.9713 5.42785C39.7833 5.33985 39.5893 5.29585 39.3893 5.29585C39.1013 5.29585 38.8413 5.37585 38.6093 5.53585C38.3773 5.69185 38.1933 5.89985 38.0573 6.15985C37.9213 6.41585 37.8533 6.69585 37.8533 6.99985C37.8533 7.29985 37.9213 7.57985 38.0573 7.83985C38.1933 8.09585 38.3773 8.30185 38.6093 8.45785C38.8413 8.61385 39.1013 8.69185 39.3893 8.69185C39.5973 8.69185 39.7953 8.64785 39.9833 8.55985C40.1713 8.46785 40.3333 8.34585 40.4693 8.19385Z" fill="white"/>
<path d="M42.6321 3.99985H44.0961V9.99985H42.6321V3.99985ZM43.3761 3.22585C43.1601 3.22585 42.9781 3.15585 42.8301 3.01585C42.6821 2.87185 42.6081 2.69185 42.6081 2.47585C42.6081 2.26385 42.6821 2.08585 42.8301 1.94185C42.9781 1.79785 43.1581 1.72585 43.3701 1.72585C43.5821 1.72585 43.7601 1.79785 43.9041 1.94185C44.0521 2.08585 44.1261 2.26385 44.1261 2.47585C44.1261 2.69185 44.0541 2.87185 43.9101 3.01585C43.7661 3.15585 43.5881 3.22585 43.3761 3.22585Z" fill="white"/>
<path d="M47.2146 10.1078C46.9026 10.0878 46.6006 10.0258 46.3086 9.92185C46.0206 9.81385 45.7646 9.66785 45.5406 9.48385C45.3166 9.29985 45.1446 9.07985 45.0246 8.82385L46.2606 8.29585C46.3086 8.37585 46.3866 8.46185 46.4946 8.55385C46.6026 8.64185 46.7306 8.71585 46.8786 8.77585C47.0306 8.83585 47.1966 8.86585 47.3766 8.86585C47.5286 8.86585 47.6726 8.84585 47.8086 8.80585C47.9486 8.76185 48.0606 8.69585 48.1446 8.60785C48.2326 8.51985 48.2766 8.40585 48.2766 8.26585C48.2766 8.11785 48.2246 8.00385 48.1206 7.92385C48.0206 7.83985 47.8926 7.77785 47.7366 7.73785C47.5846 7.69385 47.4366 7.65385 47.2926 7.61785C46.9126 7.54185 46.5586 7.42385 46.2306 7.26385C45.9066 7.10385 45.6446 6.89785 45.4446 6.64585C45.2486 6.38985 45.1506 6.08185 45.1506 5.72185C45.1506 5.32585 45.2546 4.98385 45.4626 4.69585C45.6746 4.40785 45.9486 4.18585 46.2846 4.02985C46.6246 3.87385 46.9906 3.79585 47.3826 3.79585C47.8586 3.79585 48.2946 3.89585 48.6906 4.09585C49.0906 4.29185 49.4066 4.56985 49.6386 4.92985L48.4806 5.61385C48.4246 5.51785 48.3466 5.42985 48.2466 5.34985C48.1466 5.26585 48.0326 5.19785 47.9046 5.14585C47.7766 5.08985 47.6426 5.05785 47.5026 5.04985C47.3226 5.04185 47.1586 5.05785 47.0106 5.09785C46.8626 5.13785 46.7426 5.20585 46.6506 5.30185C46.5626 5.39785 46.5186 5.52585 46.5186 5.68585C46.5186 5.83785 46.5786 5.95185 46.6986 6.02785C46.8186 6.09985 46.9626 6.15585 47.1306 6.19585C47.3026 6.23585 47.4666 6.27985 47.6226 6.32785C47.9746 6.44385 48.3046 6.58585 48.6126 6.75385C48.9246 6.92185 49.1746 7.12785 49.3626 7.37185C49.5506 7.61585 49.6406 7.90785 49.6326 8.24785C49.6326 8.63585 49.5166 8.97585 49.2846 9.26785C49.0526 9.55585 48.7526 9.77585 48.3846 9.92785C48.0206 10.0798 47.6306 10.1398 47.2146 10.1078Z" fill="white"/>
</g>
<defs>
<clipPath id="clip0_711_32240">
<rect width="108.676" height="40" fill="white"/>
</clipPath>
</defs>
</svg>
